# xmcd
#
# Track frame offsets:
#	156
#	13316
#	26764
#	43273
#	59799
#	65478
#	77785
#	88510
#	98654
#	111240
#	123094
#	137283
#	149300
#	157164
#	170207
#	182955
#	197643
#	206118
#	218249
#
# Disc length: 3106 seconds
#
# Revision: 1
# Processed by: cddbd v1.5.2PL0 Copyright (c) Steve Scherf et al.
# Submitted via: audiograbber 1.83.01
#
DISCID=230c2013
DTITLE=A palo seko - Por Fin Al Fin El Fin\\ I Donde esta Wally
DYEAR=1900
DGENRE=
TTITLE0=Si No Puedes Kon Tu Enemigo
TTITLE1=Yoga
TTITLE2=Cambio
TTITLE3=Odio
TTITLE4=Imagen
TTITLE5=Justicia
TTITLE6=Viejo Cabron
TTITLE7=Caja Tonta
TTITLE8=No Me Arrepiento
TTITLE9=Al Fin Por Fin El Fin
TTITLE10=Mendicidad
TTITLE11=El Dedo En La Llaga
TTITLE12=Bonita Historia
TTITLE13=Lorena
TTITLE14=Morir En El Ruedo
TTITLE15=Clausula
TTITLE16=Gitano Vargas
TTITLE17=Gracias A La Sociedad
TTITLE18=Eva Maria
EXTD=
EXTT0=
EXTT1=
EXTT2=
EXTT3=
EXTT4=
EXTT5=
EXTT6=
EXTT7=
EXTT8=
EXTT9=
EXTT10=
EXTT11=
EXTT12=
EXTT13=
EXTT14=
EXTT15=
EXTT16=
EXTT17=
EXTT18=
PLAYORDER=
